HIERARCHY
ROOT Hips
{
  OFFSET 0.0000 0.0000 0.0000
  CHANNELS 6 Xposition Yposition Zposition Zrotation Xrotation Yrotation
  JOINT LeftHip
  {
    OFFSET 5.5000 0.0000 -0.0000
    CHANNELS 3 Zrotation Xrotation Yrotation
    JOINT LeftKnee
    {
      OFFSET 0.0000 -17.5000 0.0000
      CHANNELS 3 Zrotation Xrotation Yrotation
      JOINT LeftAnkle
      {
        OFFSET -0.0000 -17.0000 -0.0000
        CHANNELS 3 Zrotation Xrotation Yrotation
        End Site
        {
            OFFSET 0.0000 -4.7000 -2.0000
        }
      }
    }
  }
  JOINT RightHip
  {
    OFFSET -5.5000 0.0000 0.0000
    CHANNELS 3 Zrotation Xrotation Yrotation
    JOINT RightKnee
    {
      OFFSET 0.0000 -17.5000 0.0000
      CHANNELS 3 Zrotation Xrotation Yrotation
      JOINT RightAnkle
      {
        OFFSET -0.0000 -17.0000 0.0000
        CHANNELS 3 Zrotation Xrotation Yrotation
        End Site
        {
            OFFSET 0.0000 -4.7000 -2.0000
        }
      }
    }
  }
  JOINT Chest
  {
    OFFSET 0.0000 3.0000 -1.0000
    CHANNELS 3 Zrotation Xrotation Yrotation
    JOINT LeftCollar
    {
      OFFSET 0.0000 18.0000 1.0000
      CHANNELS 3 Zrotation Xrotation Yrotation
      JOINT LeftShoulder
      {
        OFFSET 6.5000 -0.0000 0.0000
        CHANNELS 3 Zrotation Xrotation Yrotation
        JOINT LeftElbow
        {
          OFFSET 0.0000 -11.0000 -0.0000
          CHANNELS 3 Zrotation Xrotation Yrotation
          JOINT LeftWrist
          {
            OFFSET -0.0000 -10.5000 0.0000
            CHANNELS 3 Zrotation Xrotation Yrotation
            End Site
            {
                OFFSET 0.0000 -6.0000 0.0000
            }
          }
        }
      }
    }
    JOINT RightCollar
    {
      OFFSET 0.0000 18.0000 1.0000
      CHANNELS 3 Zrotation Xrotation Yrotation
      JOINT RightShoulder
      {
        OFFSET -6.5000 0.0000 -0.0000
        CHANNELS 3 Zrotation Xrotation Yrotation
        JOINT RightElbow
        {
          OFFSET -0.0000 -11.0000 0.0000
          CHANNELS 3 Zrotation Xrotation Yrotation
          JOINT RightWrist
          {
            OFFSET 0.0000 -10.5000 0.0000
            CHANNELS 3 Zrotation Xrotation Yrotation
            End Site
            {
                OFFSET 0.0000 -6.0000 -0.0000
            }
          }
        }
      }
    }
    JOINT Neck
    {
      OFFSET 0.0000 18.0000 1.0000
      CHANNELS 3 Zrotation Xrotation Yrotation
      JOINT Head
      {
        OFFSET 0.0000 3.0000 0.0000
        CHANNELS 3 Zrotation Xrotation Yrotation
        End Site
        {
            OFFSET 0.0000 7.0000 -0.0000
        }
      }
    }
  }
}
MOTION
Frames:	32
Frame Time:	0.033333
8.4645 9.3709 -4.8510 -87.48 2.34 3.83 -0.95 -5.82 -7.96 -0.00 31.35 1.04 3.74 -7.76 1.20 -15.09 -5.73 -33.13 -0.00 73.20 -4.72 41.34 20.15 -36.20 0.16 9.37 9.22 0.00 0.00 0.00 149.30 -13.86 87.73 180.00 -51.50 -166.73 58.88 -27.46 -34.09 0.00 0.00 0.00 7.30 -20.20 39.58 -0.00 -46.40 -3.98 22.10 22.27 50.14 0.00 0.00 0.00 10.54 -5.91 20.43 
8.4645 9.3709 -4.8510 -87.48 2.34 3.83 -0.95 -5.82 -7.96 0.00 31.35 1.04 3.74 -7.76 1.20 -15.09 -5.73 -33.13 0.00 73.20 -4.72 41.34 20.15 -36.20 0.16 9.37 9.22 0.00 0.00 0.00 149.30 -13.86 87.73 -180.00 -51.50 -166.73 58.88 -27.46 -34.09 0.00 0.00 0.00 7.30 -20.20 39.58 -0.00 -46.40 -3.98 22.10 22.27 50.14 0.00 0.00 0.00 10.54 -5.91 20.43 
8.4645 9.3709 -4.8510 -87.48 2.34 3.83 -0.95 -5.82 -7.96 0.00 31.35 1.04 3.74 -7.76 1.20 -15.09 -5.73 -33.13 -0.00 73.20 -4.72 41.34 20.15 -36.20 0.16 9.37 9.22 0.00 0.00 0.00 149.29 -13.86 87.73 -180.00 -51.50 -166.73 58.88 -27.46 -34.09 0.00 0.00 0.00 7.30 -20.20 39.58 -0.00 -46.40 -3.98 22.10 22.27 50.14 0.00 0.00 0.00 10.54 -5.91 20.43 
8.4645 9.3709 -4.8510 -87.48 2.34 3.83 -0.95 -5.82 -7.96 -0.00 31.35 1.04 3.74 -7.76 1.20 -15.09 -5.73 -33.13 -0.00 73.20 -4.72 41.34 20.15 -36.20 0.16 9.37 9.22 0.00 0.00 0.00 149.28 -13.86 87.73 -180.00 -51.50 -166.73 58.88 -27.47 -34.08 0.00 0.00 0.00 7.30 -20.20 39.58 -0.00 -46.40 -3.98 22.10 22.27 50.14 0.00 0.00 0.00 10.54 -5.91 20.43 
8.4645 9.3709 -4.8510 -87.48 2.34 3.83 -0.95 -5.82 -7.96 0.00 31.35 1.04 3.74 -7.76 1.20 -15.09 -5.73 -33.13 -0.00 73.20 -4.72 41.34 20.15 -36.20 0.16 9.37 9.22 0.00 0.00 0.00 149.28 -13.86 87.73 180.00 -51.50 -166.73 58.88 -27.47 -34.08 0.00 0.00 0.00 7.30 -20.20 39.58 -0.00 -46.40 -3.98 22.10 22.27 50.14 0.00 0.00 0.00 10.54 -5.91 20.43 
8.4645 9.3709 -4.8510 -87.48 2.34 3.83 -0.95 -5.82 -7.96 -0.00 31.35 1.04 3.74 -7.76 1.20 -15.09 -5.73 -33.13 -0.00 73.20 -4.72 41.34 20.15 -36.20 0.16 9.37 9.22 0.00 0.00 0.00 149.29 -13.86 87.73 -180.00 -51.50 -166.73 58.88 -27.46 -34.09 0.00 0.00 0.00 7.30 -20.20 39.58 -0.00 -46.40 -3.98 22.10 22.27 50.14 0.00 0.00 0.00 10.54 -5.91 20.43 
8.4645 9.3709 -4.8510 -87.48 2.34 3.83 -0.95 -5.82 -7.96 0.00 31.35 1.04 3.74 -7.76 1.20 -15.09 -5.73 -33.13 -0.00 73.20 -4.72 41.34 20.15 -36.20 0.16 9.37 9.22 0.00 0.00 0.00 149.33 -13.86 87.74 180.00 -51.49 -166.73 58.87 -27.44 -34.12 0.00 0.00 0.00 7.30 -20.20 39.58 0.00 -46.40 -3.98 22.10 22.27 50.14 0.00 0.00 0.00 10.54 -5.91 20.43 
8.4645 9.3709 -4.8510 -87.48 2.34 3.83 -0.95 -5.82 -7.96 -0.00 31.35 1.04 3.74 -7.76 1.20 -15.09 -5.73 -33.13 -0.00 73.20 -4.72 41.34 20.15 -36.20 0.16 9.37 9.22 0.00 0.00 0.00 149.39 -13.86 87.76 180.00 -51.47 -166.74 58.86 -27.40 -34.17 0.00 0.00 0.00 7.30 -20.20 39.58 0.00 -46.40 -3.98 22.10 22.27 50.14 0.00 0.00 0.00 10.54 -5.91 20.43 
8.4645 9.3709 -4.8510 -87.48 2.34 3.83 -0.95 -5.82 -7.96 0.00 31.35 1.04 3.74 -7.76 1.20 -15.09 -5.73 -33.13 0.00 73.20 -4.72 41.34 20.15 -36.20 0.16 9.37 9.22 0.00 0.00 0.00 149.45 -13.86 87.78 180.00 -51.46 -166.74 58.85 -27.37 -34.21 0.00 0.00 0.00 7.30 -20.20 39.58 0.00 -46.41 -3.98 22.10 22.28 50.14 0.00 0.00 0.00 10.54 -5.91 20.43 
8.4645 9.3708 -4.8510 -87.48 2.34 3.83 -0.95 -5.82 -7.96 0.00 31.35 1.04 3.74 -7.76 1.21 -15.09 -5.73 -33.13 0.00 73.20 -4.72 41.34 20.15 -36.20 0.16 9.37 9.22 0.00 0.00 0.00 149.51 -13.86 87.81 -180.00 -51.46 -166.75 58.85 -27.35 -34.24 0.00 0.00 0.00 7.30 -20.21 39.58 -0.00 -46.50 -3.98 22.10 22.32 50.12 0.00 0.00 0.00 10.55 -5.93 20.43 
8.4644 9.3708 -4.8510 -87.48 2.34 3.83 -0.95 -5.82 -7.96 -0.00 31.35 1.04 3.74 -7.76 1.21 -15.09 -5.73 -33.13 -0.00 73.20 -4.72 41.34 20.15 -36.20 0.16 9.36 9.22 0.00 0.00 0.00 149.56 -13.85 87.83 -180.00 -51.46 -166.75 58.85 -27.32 -34.25 0.00 0.00 0.00 7.30 -20.20 39.58 -0.00 -46.63 -4.00 22.09 22.39 50.10 0.00 0.00 0.00 10.59 -5.99 20.45 
8.4645 9.3707 -4.8510 -87.48 2.34 3.83 -0.95 -5.82 -7.96 0.00 31.35 1.04 3.74 -7.76 1.21 -15.09 -5.73 -33.13 0.00 73.20 -4.72 41.35 20.15 -36.21 0.16 9.36 9.22 0.00 0.00 0.00 149.61 -13.82 87.85 180.00 -51.45 -166.77 58.86 -27.27 -34.26 0.00 0.00 0.00 7.30 -20.19 39.58 -0.00 -46.77 -4.01 22.06 22.46 50.08 0.00 0.00 0.00 10.67 -6.11 20.48 
8.4645 9.3707 -4.8510 -87.48 2.34 3.83 -0.95 -5.82 -7.96 0.00 31.35 1.04 3.74 -7.76 1.21 -15.09 -5.73 -33.13 -0.00 73.20 -4.72 41.35 20.15 -36.21 0.16 9.36 9.23 0.00 0.00 0.00 149.67 -13.79 87.88 -180.00 -51.44 -166.80 58.88 -27.21 -34.26 0.00 0.00 0.00 7.31 -20.18 39.58 0.00 -46.89 -4.03 22.01 22.51 50.07 0.00 0.00 0.00 10.76 -6.24 20.52 
8.4645 9.3707 -4.8510 -87.48 2.34 3.83 -0.95 -5.82 -7.96 0.00 31.35 1.04 3.74 -7.76 1.21 -15.09 -5.73 -33.13 -0.00 73.20 -4.72 41.36 20.16 -36.21 0.16 9.35 9.23 0.00 0.00 0.00 149.72 -13.73 87.92 -180.00 -51.42 -166.83 58.90 -27.13 -34.26 0.00 0.00 0.00 7.32 -20.17 39.59 -0.00 -46.97 -4.04 21.97 22.53 50.07 0.00 0.00 0.00 10.83 -6.30 20.56 
8.4645 9.3707 -4.8511 -87.48 2.34 3.83 -0.95 -5.82 -7.96 -0.00 31.35 1.04 3.73 -7.76 1.21 -15.09 -5.73 -33.12 -0.00 73.20 -4.72 41.36 20.17 -36.22 0.17 9.34 9.23 0.00 0.00 0.00 149.77 -13.67 87.97 180.00 -51.40 -166.86 58.93 -27.04 -34.24 0.00 0.00 0.00 7.34 -20.16 39.59 -0.00 -46.99 -4.05 21.92 22.55 50.08 0.00 0.00 0.00 10.87 -6.29 20.60 
8.4645 9.3707 -4.8511 -87.48 2.34 3.83 -0.95 -5.82 -7.96 -0.00 31.35 1.04 3.73 -7.76 1.21 -15.09 -5.73 -33.12 0.00 73.19 -4.72 41.37 20.18 -36.22 0.17 9.34 9.23 0.00 0.00 0.00 149.80 -13.60 88.01 180.00 -51.39 -166.89 58.96 -26.97 -34.21 0.00 0.00 0.00 7.38 -20.16 39.61 0.00 -46.97 -4.06 21.88 22.55 50.09 0.00 0.00 0.00 10.91 -6.26 20.65 
8.4646 9.3707 -4.8512 -87.48 2.34 3.83 -0.95 -5.82 -7.96 0.00 31.35 1.04 3.73 -7.76 1.21 -15.09 -5.73 -33.12 0.00 73.19 -4.72 41.38 20.20 -36.22 0.17 9.33 9.24 0.00 0.00 0.00 149.82 -13.52 88.04 180.00 -51.35 -166.92 59.00 -26.90 -34.18 0.00 0.00 0.00 7.44 -20.17 39.63 -0.00 -46.91 -4.07 21.87 22.56 50.10 0.00 0.00 0.00 10.96 -6.25 20.69 
8.4646 9.3707 -4.8512 -87.48 2.34 3.83 -0.95 -5.82 -7.96 0.00 31.35 1.04 3.73 -7.76 1.21 -15.09 -5.72 -33.12 0.00 73.19 -4.72 41.39 20.22 -36.22 0.18 9.32 9.25 0.00 0.00 0.00 149.82 -13.44 88.07 180.00 -51.29 -166.93 59.03 -26.85 -34.14 0.00 0.00 0.00 7.52 -20.21 39.66 0.00 -46.81 -4.07 21.83 22.61 50.14 0.00 0.00 0.00 11.01 -6.25 20.75 
8.4647 9.3706 -4.8513 -87.48 2.34 3.83 -0.95 -5.82 -7.96 -0.00 31.35 1.04 3.73 -7.76 1.21 -15.09 -5.72 -33.12 0.00 73.18 -4.72 41.40 20.25 -36.23 0.18 9.30 9.26 0.00 0.00 0.00 149.80 -13.36 88.09 -180.00 -51.22 -166.95 59.07 -26.81 -34.11 0.00 0.00 0.00 7.65 -20.28 39.70 0.00 -46.69 -4.07 21.76 22.71 50.20 0.00 0.00 0.00 11.05 -6.23 20.80 
8.4647 9.3706 -4.8513 -87.48 2.34 3.83 -0.95 -5.82 -7.96 0.00 31.35 1.04 3.73 -7.76 1.21 -15.09 -5.72 -33.12 0.00 73.18 -4.72 41.42 20.28 -36.24 0.19 9.29 9.27 0.00 0.00 0.00 149.77 -13.28 88.11 180.00 -51.15 -166.96 59.11 -26.77 -34.06 0.00 0.00 0.00 7.81 -20.39 39.76 -0.00 -46.67 -4.07 21.69 22.89 50.16 0.00 0.00 0.00 11.06 -6.15 20.85 
8.4648 9.3706 -4.8514 -87.48 2.34 3.83 -0.95 -5.82 -7.96 -0.00 31.35 1.04 3.73 -7.76 1.21 -15.09 -5.72 -33.12 0.00 73.18 -4.72 41.43 20.30 -36.25 0.19 9.28 9.29 0.00 0.00 0.00 149.74 -13.18 88.11 180.00 -51.09 -166.97 59.16 -26.75 -34.01 0.00 0.00 0.00 8.01 -20.55 39.85 -0.00 -46.98 -4.06 21.72 23.23 49.81 0.00 0.00 0.00 11.04 -5.99 20.90 
8.4649 9.3706 -4.8516 -87.48 2.34 3.83 -0.95 -5.82 -7.96 -0.00 31.35 1.04 3.73 -7.76 1.21 -15.08 -5.72 -33.12 -0.00 73.17 -4.72 41.45 20.34 -36.25 0.20 9.27 9.31 0.00 0.00 0.00 149.69 -13.09 88.12 -180.00 -51.02 -166.97 59.20 -26.74 -33.96 0.00 0.00 0.00 8.20 -20.80 39.96 -0.00 -47.92 -4.03 21.97 23.83 48.93 0.00 0.00 0.00 11.02 -5.84 20.95 
8.4650 9.3706 -4.8516 -87.48 2.34 3.83 -0.95 -5.82 -7.96 0.00 31.35 1.04 3.73 -7.76 1.21 -15.08 -5.72 -33.12 0.00 73.17 -4.72 41.47 20.37 -36.26 0.20 9.26 9.33 0.00 0.00 0.00 149.64 -13.01 88.12 -180.00 -50.95 -166.97 59.23 -26.75 -33.92 0.00 0.00 0.00 8.43 -21.17 40.08 -0.00 -49.84 -4.02 22.44 24.79 47.36 0.00 0.00 0.00 11.04 -5.86 21.00 
8.4650 9.3705 -4.8517 -87.48 2.34 3.83 -0.95 -5.82 -7.96 -0.00 31.35 1.04 3.73 -7.76 1.21 -15.08 -5.71 -33.12 0.00 73.16 -4.72 41.50 20.42 -36.27 0.20 9.25 9.35 0.00 0.00 0.00 149.59 -12.93 88.11 180.00 -50.89 -166.96 59.26 -26.79 -33.87 0.00 0.00 0.00 8.78 -21.70 40.13 -0.00 -52.73 -4.12 23.08 26.07 45.25 0.00 0.00 0.00 11.10 -5.98 21.05 
8.4650 9.3705 -4.8518 -87.48 2.34 3.83 -0.95 -5.82 -7.96 0.00 31.35 1.04 3.73 -7.76 1.21 -15.08 -5.71 -33.12 0.00 73.16 -4.72 41.52 20.46 -36.28 0.21 9.25 9.38 0.00 0.00 0.00 149.53 -12.87 88.08 180.00 -50.82 -166.94 59.29 -26.84 -33.84 0.00 0.00 0.00 9.29 -22.39 39.96 -0.00 -56.71 -4.40 23.82 27.67 42.64 0.00 0.00 0.00 11.15 -6.08 21.11 
8.4651 9.3705 -4.8519 -87.48 2.34 3.83 -0.95 -5.82 -7.96 -0.00 31.34 1.04 3.73 -7.76 1.21 -15.08 -5.71 -33.12 0.00 73.15 -4.72 41.55 20.51 -36.29 0.21 9.24 9.41 0.00 0.00 0.00 149.47 -12.81 88.04 180.00 -50.76 -166.91 59.32 -26.92 -33.82 0.00 0.00 0.00 9.95 -23.21 39.25 -0.00 -61.79 -4.78 24.65 29.27 39.50 0.00 0.00 0.00 11.15 -6.06 21.15 
8.4653 9.3705 -4.8520 -87.48 2.34 3.83 -0.95 -5.81 -7.96 -0.00 31.34 1.04 3.73 -7.76 1.21 -15.08 -5.71 -33.12 -0.00 73.14 -4.72 41.57 20.56 -36.30 0.21 9.24 9.45 0.00 0.00 0.00 149.42 -12.77 87.97 -180.00 -50.71 -166.87 59.34 -27.03 -33.82 0.00 0.00 0.00 10.75 -24.16 37.98 -0.00 -67.42 -5.11 25.30 30.48 36.00 0.00 0.00 0.00 11.07 -5.86 21.18 
8.4653 9.3705 -4.8520 -87.48 2.34 3.83 -0.95 -5.81 -7.96 0.00 31.34 1.04 3.73 -7.76 1.21 -15.08 -5.71 -33.12 -0.00 73.14 -4.72 41.60 20.61 -36.32 0.20 9.25 9.49 0.00 0.00 0.00 149.38 -12.74 87.88 -180.00 -50.67 -166.81 59.36 -27.17 -33.83 0.00 0.00 0.00 11.79 -25.20 36.61 -0.00 -73.63 -5.33 25.11 31.31 32.29 0.00 0.00 0.00 10.95 -5.50 21.22 
8.4654 9.3705 -4.8521 -87.48 2.34 3.83 -0.95 -5.81 -7.96 -0.00 31.34 1.04 3.73 -7.76 1.21 -15.08 -5.71 -33.12 0.00 73.13 -4.72 41.63 20.66 -36.33 0.20 9.26 9.54 0.00 0.00 0.00 149.36 -12.72 87.77 -180.00 -50.64 -166.76 59.38 -27.32 -33.86 0.00 0.00 0.00 13.05 -26.24 35.38 -0.00 -79.72 -5.55 23.59 31.66 29.02 0.00 0.00 0.00 10.80 -5.07 21.25 
8.4655 9.3704 -4.8523 -87.48 2.34 3.83 -0.95 -5.81 -7.96 -0.00 31.34 1.04 3.73 -7.76 1.21 -15.07 -5.70 -33.12 0.00 73.13 -4.71 41.65 20.71 -36.34 0.19 9.27 9.59 0.00 0.00 0.00 149.35 -12.74 87.65 -180.00 -50.63 -166.70 59.39 -27.49 -33.90 0.00 0.00 0.00 14.48 -27.37 34.38 -0.00 -85.40 -5.71 20.90 31.61 26.33 0.00 0.00 0.00 10.69 -4.68 21.30 
8.4656 9.3704 -4.8525 -87.48 2.34 3.83 -0.95 -5.81 -7.97 0.00 31.34 1.04 3.73 -7.76 1.21 -15.07 -5.70 -33.12 0.00 73.12 -4.71 41.68 20.77 -36.35 0.18 9.29 9.64 0.00 0.00 0.00 149.36 -12.78 87.53 -180.00 -50.64 -166.64 59.37 -27.67 -33.95 0.00 0.00 0.00 15.85 -28.55 33.56 -180.00 -89.59 174.30 17.17 30.99 24.24 0.00 0.00 0.00 10.62 -4.40 21.35 
8.4656 9.3703 -4.8526 -87.48 2.34 3.83 -0.95 -5.81 -7.97 0.00 31.34 1.04 3.72 -7.76 1.21 -15.07 -5.69 -33.12 -0.00 73.12 -4.71 41.71 20.82 -36.36 0.16 9.32 9.71 0.00 0.00 0.00 149.37 -12.84 87.41 180.00 -50.66 -166.58 59.36 -27.86 -34.00 0.00 0.00 0.00 17.05 -29.61 32.82 -180.00 -85.37 174.44 12.88 29.64 22.79 0.00 0.00 0.00 10.58 -4.11 21.43 
